<svg xmlns="http://www.w3.org/2000/svg" viewBox="0 0 64 64">
  <rect width="64" height="64" rx="14" fill="#1e3a8a"/>
  <rect x="14" y="12" width="36" height="40" rx="6" fill="#ffffff"/>
  <rect x="19" y="17" width="26" height="10" rx="2" fill="#0f172a"/>
  <g fill="#cbd5e1">
    <rect x="19" y="31" width="6" height="5" rx="1.5"/>
    <rect x="29" y="31" width="6" height="5" rx="1.5"/>
    <rect x="39" y="31" width="6" height="5" rx="1.5"/>
    <rect x="19" y="39" width="6" height="5" rx="1.5"/>
    <rect x="29" y="39" width="6" height="5" rx="1.5"/>
    <rect x="39" y="39" width="6" height="5" rx="1.5"/>
  </g>
  <path d="M32,58C32,58,22,51,22,44C22,41,24,39,26.5,39C28.5,39,30,40.5,32,42.5C34,40.5,35.5,39,37.5,39C40,39,42,41,42,44C42,51,32,58,32,58Z" fill="#ef4444" stroke="#ffffff" stroke-width="1"/>
</svg>
