<svg xmlns="http://www.w3.org/2000/svg" width="1200" height="630" viewBox="0 0 1200 630">
  <defs>
    <linearGradient id="bg" x1="0" y1="0" x2="1" y2="1">
      <stop offset="0" stop-color="#1e3a8a"/>
      <stop offset="0.55" stop-color="#3730a3"/>
      <stop offset="1" stop-color="#0f172a"/>
    </linearGradient>
    <radialGradient id="glow" cx="0.5" cy="0.5" r="0.5">
      <stop offset="0" stop-color="#60a5fa" stop-opacity="0.25"/>
      <stop offset="1" stop-color="#60a5fa" stop-opacity="0"/>
    </radialGradient>
  </defs>

  <rect width="1200" height="630" fill="url(#bg)"/>
  <circle cx="600" cy="315" r="350" fill="url(#glow)"/>

  <!-- Logo centrado: calculadora + corazón (favicon escalado) -->
  <g transform="translate(564, 185)">
    <rect x="0" y="0" width="72" height="80" rx="10" fill="#ffffff"/>
    <rect x="10" y="10" width="52" height="18" rx="3" fill="#0f172a"/>
    <g fill="#cbd5e1">
      <rect x="10" y="35" width="14" height="10" rx="2"/>
      <rect x="29" y="35" width="14" height="10" rx="2"/>
      <rect x="48" y="35" width="14" height="10" rx="2"/>
      <rect x="10" y="50" width="14" height="10" rx="2"/>
      <rect x="29" y="50" width="14" height="10" rx="2"/>
      <rect x="48" y="50" width="14" height="10" rx="2"/>
    </g>
    <path d="M36,130 C36,130 17,115 17,98 17,89 23,82 31,82 35,82 39,85 36,92 39,85 43,82 47,82 55,82 61,89 61,98 61,115 36,130 36,130 Z" fill="#ef4444" stroke="#ffffff" stroke-width="2"/>
  </g>
</svg>
